<svg width="65" height="65" viewBox="0 0 65 65" fill="none" xmlns="http://www.w3.org/2000/svg">
<g clip-path="url(#clip0_407_14)">
<path d="M32.5 2.56144e-05C14.5492 2.56144e-05 0 14.5519 0 32.5C0 50.4509 14.5492 65 32.5 65C50.4481 65 65 50.4509 65 32.5C65.0013 29.4368 64.57 26.3887 63.719 23.4461C63.5594 23.0586 63.2564 22.7477 62.8731 22.5783C62.4898 22.409 62.0559 22.3942 61.662 22.5372C61.2681 22.6801 60.9446 22.9697 60.7591 23.3455C60.5737 23.7213 60.5406 24.1542 60.6667 24.5538H60.6613C61.379 27.1077 61.75 29.7754 61.75 32.5C61.7606 36.3428 61.0089 40.1495 59.5385 43.6998C58.068 47.2501 55.908 50.4736 53.1835 53.1836C50.4736 55.9082 47.2502 58.0682 43.6999 59.5387C40.1495 61.0091 36.3428 61.7607 32.5 61.75C28.6572 61.7606 24.8505 61.0089 21.3002 59.5385C17.7499 58.068 14.5264 55.9081 11.8165 53.1836C9.09171 50.4738 6.93158 47.2504 5.46113 43.7C3.99068 40.1496 3.23914 36.3428 3.25 32.5C3.23943 28.6573 3.99112 24.8506 5.46155 21.3002C6.93198 17.7499 9.09195 14.5265 11.8165 11.8165C14.5263 9.09174 17.7497 6.9316 21.3 5.46116C24.8504 3.99071 28.6572 3.23916 32.5 3.25003C39.4767 3.25003 46.0769 5.67669 51.3446 10.1292C51.0117 10.9742 50.9785 11.9079 51.2507 12.7744C51.5228 13.6409 52.0838 14.3879 52.8401 14.8908C53.5965 15.3937 54.5023 15.6221 55.4067 15.5379C56.311 15.4538 57.1591 15.0621 57.8096 14.4282C58.4601 13.7943 58.8736 12.9566 58.9811 12.0547C59.0887 11.1528 58.8837 10.2414 58.4005 9.47233C57.9173 8.70328 57.1851 8.12313 56.3259 7.82867C55.4667 7.5342 54.5325 7.54321 53.6792 7.85419C47.7915 2.77815 40.2738 -0.00974871 32.5 2.56144e-05V2.56144e-05ZM28.6 15.925L17.225 45.4513H24.3479L26.2085 40.4463H36.9579L35.0106 34.9159H27.9338L32.5379 22.2111L40.7279 45.4486H47.8535L36.4813 15.925H28.6Z" fill="#8257E6"/>
</g>
<defs>
<clipPath id="clip0_407_14">
<rect width="65" height="65" fill="white"/>
</clipPath>
</defs>
</svg>
