<svg width="65" height="65" viewBox="0 0 65 65" fill="none" xmlns="http://www.w3.org/2000/svg">
<path d="M14.1667 13.5833C14.1667 10.9532 15.2115 8.43089 17.0713 6.57115C18.931 4.71141 21.4534 3.66663 24.0834 3.66663H34.0001V23.5H24.0834C21.4534 23.5 18.931 22.4552 17.0713 20.5954C15.2115 18.7357 14.1667 16.2134 14.1667 13.5833Z" stroke="#8257E6" stroke-width="2" stroke-linecap="round" stroke-linejoin="round"/>
<path d="M34 3.66663H43.9167C45.2189 3.66663 46.5085 3.92313 47.7116 4.42149C48.9148 4.91985 50.008 5.6503 50.9288 6.57115C51.8497 7.492 52.5801 8.5852 53.0785 9.78835C53.5768 10.9915 53.8333 12.281 53.8333 13.5833C53.8333 14.8856 53.5768 16.1751 53.0785 17.3782C52.5801 18.5814 51.8497 19.6746 50.9288 20.5954C50.008 21.5163 48.9148 22.2467 47.7116 22.7451C46.5085 23.2435 45.2189 23.5 43.9167 23.5H34V3.66663Z" stroke="#8257E6" stroke-width="2" stroke-linecap="round" stroke-linejoin="round"/>
<path d="M34 33.4167C34 32.1144 34.2565 30.8249 34.7549 29.6217C35.2532 28.4186 35.9837 27.3254 36.9045 26.4045C37.8254 25.4837 38.9186 24.7532 40.1217 24.2549C41.3249 23.7565 42.6144 23.5 43.9167 23.5C45.2189 23.5 46.5085 23.7565 47.7116 24.2549C48.9148 24.7532 50.008 25.4837 50.9288 26.4045C51.8497 27.3254 52.5801 28.4186 53.0785 29.6217C53.5768 30.8249 53.8333 32.1144 53.8333 33.4167C53.8333 34.7189 53.5768 36.0085 53.0785 37.2116C52.5801 38.4148 51.8497 39.508 50.9288 40.4288C50.008 41.3497 48.9148 42.0801 47.7116 42.5785C46.5085 43.0768 45.2189 43.3333 43.9167 43.3333C42.6144 43.3333 41.3249 43.0768 40.1217 42.5785C38.9186 42.0801 37.8254 41.3497 36.9045 40.4288C35.9837 39.508 35.2532 38.4148 34.7549 37.2116C34.2565 36.0085 34 34.7189 34 33.4167V33.4167Z" stroke="#8257E6" stroke-width="2" stroke-linecap="round" stroke-linejoin="round"/>
<path d="M14.1667 53.25C14.1667 50.62 15.2115 48.0976 17.0713 46.2379C18.931 44.3782 21.4534 43.3334 24.0834 43.3334H34.0001V53.25C34.0001 55.8801 32.9553 58.4024 31.0956 60.2622C29.2358 62.1219 26.7135 63.1667 24.0834 63.1667C21.4534 63.1667 18.931 62.1219 17.0713 60.2622C15.2115 58.4024 14.1667 55.8801 14.1667 53.25Z" stroke="#8257E6" stroke-width="2" stroke-linecap="round" stroke-linejoin="round"/>
<path d="M14.1667 33.4167C14.1667 30.7866 15.2115 28.2643 17.0713 26.4045C18.931 24.5448 21.4534 23.5 24.0834 23.5H34.0001V43.3333H24.0834C21.4534 43.3333 18.931 42.2885 17.0713 40.4288C15.2115 38.5691 14.1667 36.0467 14.1667 33.4167Z" stroke="#8257E6" stroke-width="2" stroke-linecap="round" stroke-linejoin="round"/>
</svg>
