<svg width="66" height="66" viewBox="0 0 66 66" fill="none" xmlns="http://www.w3.org/2000/svg">
<path d="M6.15412 50.0146L3.47314 48.6364L33.3427 2.59558L36.0219 3.97326L6.15412 50.0146Z" fill="#8257E6"/>
<path d="M2.85767 44.9587H62.5944V47.7131H2.85767V44.9587Z" fill="#8257E6"/>
<path d="M33.9203 61.8598L4.04199 46.5072L5.58996 44.1201L35.4688 59.4748L33.9203 61.8598ZM59.8762 21.8443L29.9979 6.48959L31.5459 4.1051L61.4248 19.4572L59.8762 21.8443Z" fill="#8257E6"/>
<path d="M5.59695 21.8339L4.0484 19.4474L33.9296 4.09473L35.4776 6.47973L5.59695 21.8339Z" fill="#8257E6"/>
<path d="M59.3255 50.0146L29.4582 3.97326L32.1381 2.59558L62.0076 48.6364L59.3255 50.0146ZM5.22748 17.6194H8.324V48.3288H5.22806L5.22748 17.6194Z" fill="#8257E6"/>
<path d="M57.1492 17.6194H60.2451V48.3288H57.1492V17.6194Z" fill="#8257E6"/>
<path d="M33.3946 60.6943L32.0424 58.6091L58.0281 45.255L59.3802 47.3402L33.3946 60.6943Z" fill="#8257E6"/>
<path d="M64.3476 49.2241C62.5583 51.9961 58.5672 52.9422 55.4532 51.3498C52.3386 49.7553 51.2755 46.2032 53.0648 43.4312C54.8564 40.6593 58.8475 39.7131 61.9621 41.3061C65.0948 42.9167 66.1578 46.4522 64.3476 49.2241M12.3903 22.517C10.5987 25.289 6.60757 26.2351 3.49297 24.6422C0.378381 23.0477 -0.684684 19.4961 1.10516 16.7241C2.89675 13.9522 6.88732 13.006 10.0019 14.5985C13.1165 16.2096 14.1796 19.7451 12.3903 22.517ZM1.12556 49.2241C-0.666617 46.4522 0.397031 42.9167 3.51104 41.3056C6.62563 39.7131 10.5981 40.6593 12.4084 43.4312C14.1976 46.2032 13.1346 49.7387 10.02 51.3498C6.88732 52.9422 2.91482 51.9961 1.12556 49.2241M53.0829 22.517C51.2936 19.7451 52.3567 16.2096 55.4712 14.5985C58.5858 13.006 62.5583 13.9522 64.368 16.7241C66.1573 19.4961 65.0948 23.0316 61.9802 24.6427C58.8656 26.2351 54.8744 25.289 53.0829 22.517ZM32.7366 65.4741C31.8816 65.4748 31.0349 65.3254 30.2448 65.0346C29.4548 64.7437 28.7369 64.317 28.1324 63.7789C27.5278 63.2409 27.0484 62.602 26.7215 61.8989C26.3947 61.1957 26.2269 60.4421 26.2276 59.6812C26.2269 58.9203 26.3947 58.1667 26.7215 57.4636C27.0484 56.7604 27.5278 56.1216 28.1324 55.5835C28.7369 55.0454 29.4548 54.6188 30.2448 54.3279C31.0349 54.037 31.8816 53.8876 32.7366 53.8883C33.5916 53.8876 34.4383 54.037 35.2284 54.3279C36.0184 54.6188 36.7362 55.0454 37.3408 55.5835C37.9454 56.1216 38.4248 56.7604 38.7516 57.4636C39.0785 58.1667 39.2463 58.9203 39.2455 59.6812C39.2455 62.8687 36.3361 65.4741 32.7366 65.4741ZM32.7366 12.0599C31.8816 12.0606 31.0349 11.9112 30.2448 11.6204C29.4548 11.3295 28.7369 10.9028 28.1324 10.3647C27.5278 9.82669 27.0484 9.18781 26.7215 8.48468C26.3947 7.78154 26.2269 7.02795 26.2276 6.26702C26.2269 5.5061 26.3947 4.7525 26.7215 4.04937C27.0484 3.34623 27.5278 2.70736 28.1324 2.1693C28.7369 1.63125 29.4548 1.20457 30.2448 0.913692C31.0349 0.622813 31.8816 0.473441 32.7366 0.474123C33.5916 0.473441 34.4383 0.622813 35.2284 0.913692C36.0184 1.20457 36.7362 1.63125 37.3408 2.1693C37.9454 2.70736 38.4248 3.34623 38.7516 4.04937C39.0785 4.7525 39.2463 5.5061 39.2455 6.26702C39.2463 7.02795 39.0785 7.78154 38.7516 8.48468C38.4248 9.18781 37.9454 9.82669 37.3408 10.3647C36.7362 10.9028 36.0184 11.3295 35.2284 11.6204C34.4383 11.9112 33.5916 12.0606 32.7366 12.0599" fill="#8257E6"/>
</svg>
