<svg width="65" height="65" viewBox="0 0 65 65" fill="none" xmlns="http://www.w3.org/2000/svg">
<path fill-rule="evenodd" clip-rule="evenodd" d="M0 0H65V65H0V0ZM49.6898 54.4917C46.6754 54.4917 44.9719 52.9208 43.6637 50.7812L38.6994 53.6656C40.4923 57.2081 44.1567 59.911 49.8306 59.911C55.6319 59.911 59.9517 56.8994 59.9517 51.3988C59.9517 46.299 57.0212 44.0321 51.8321 41.8031L50.3046 41.1504C47.6829 40.0129 46.5481 39.2735 46.5481 37.44C46.5481 35.9585 47.6856 34.8237 49.4731 34.8237C51.2254 34.8237 52.3548 35.5631 53.4029 37.44L58.1588 34.3877C56.1465 30.8479 53.3569 29.4965 49.4731 29.4965C44.0185 29.4965 40.5275 32.9848 40.5275 37.5673C40.5275 42.5371 43.4525 44.8906 47.8617 46.7675L49.3892 47.4229C52.176 48.6417 53.8363 49.3837 53.8363 51.4773C53.8363 53.2269 52.2194 54.4917 49.6898 54.4917ZM26.019 54.451C23.92 54.451 23.0452 53.0156 22.0865 51.3094L17.114 54.321C18.5548 57.3706 21.3877 59.9002 26.2762 59.9002C31.6902 59.9002 35.3979 57.0212 35.3979 50.6973V29.8431H29.2906V50.616C29.2906 53.6683 28.0231 54.451 26.0162 54.451H26.019Z" fill="#8257E6"/>
</svg>
