<svg width="66" height="66" viewBox="0 0 66 66" fill="none" xmlns="http://www.w3.org/2000/svg">
<g clip-path="url(#clip0_407_12)">
<path d="M19.2516 37.8337C19.6957 37.5797 20.2672 37.7384 20.521 38.1934L20.6902 38.4791C21.9916 40.7853 23.3457 42.9752 24.7527 45.049C26.4137 47.4927 28.2863 49.9684 30.3706 52.4755C30.5293 52.6641 30.6071 52.9076 30.5873 53.1532C30.5675 53.3989 30.4516 53.6268 30.2647 53.7874L30.0638 53.9673C23.1765 59.9871 18.7121 61.1823 16.6489 57.5748C14.6284 54.0415 15.3583 47.6303 18.8388 38.3204C18.9148 38.1146 19.0609 37.9423 19.2516 37.8337V37.8337ZM48.5565 44.9114C49.0538 44.8266 49.5299 45.1443 49.625 45.6413L49.6781 45.9165C51.3813 54.8136 50.1859 59.2677 46.0914 59.2677C42.082 59.2677 36.9933 55.4696 30.7937 47.8841C30.6544 47.7149 30.5828 47.5001 30.5927 47.2812C30.5927 46.7734 31.0157 46.3606 31.5236 46.3606H31.8515C34.3897 46.3806 36.9275 46.2924 39.4582 46.0963C42.3569 45.8634 45.3932 45.472 48.5565 44.9114V44.9114ZM50.9155 26.0165C51.0022 25.7826 51.1769 25.5919 51.4023 25.4852C51.6277 25.3784 51.8859 25.364 52.1218 25.445L52.397 25.5403C61.2307 28.545 64.595 31.8562 62.4684 35.4639C60.3949 38.9975 54.3646 41.5685 44.367 43.1765C44.1449 43.2081 43.912 43.1656 43.7216 43.0492C43.2666 42.7848 43.1082 42.2136 43.3831 41.7586L43.5524 41.4732C44.9174 39.1879 46.1442 36.9134 47.2552 34.6387C48.546 31.9621 49.7731 29.0845 50.9158 26.0165H50.9155ZM21.6005 23.3504C21.8226 23.3187 22.0555 23.3612 22.2459 23.4777C22.7009 23.742 22.8593 24.3132 22.5844 24.7682L22.4152 25.0536C21.0855 27.2788 19.8501 29.559 18.7123 31.8881C17.4215 34.5648 16.1944 37.4424 15.0517 40.5104C14.965 40.7441 14.7904 40.9348 14.565 41.0415C14.3397 41.1483 14.0816 41.1628 13.8457 41.0818L13.5706 40.9865C4.73679 37.9819 1.3725 34.6707 3.49908 31.0629C5.57258 27.5293 11.603 24.9583 21.6005 23.3504V23.3504ZM35.9037 12.5596C42.791 6.53974 47.2555 5.34456 49.3187 8.95206C51.3391 12.4853 50.6092 18.8965 47.1287 28.2064C47.0528 28.4122 46.9066 28.5846 46.716 28.6931C46.2718 28.9471 45.7003 28.7884 45.4466 28.3334L45.2773 28.0477C43.9759 25.7416 42.6218 23.5516 41.2148 21.4778C39.5538 19.0341 37.6812 16.5584 35.5969 14.0513C35.4382 13.8627 35.3604 13.6192 35.3802 13.3736C35.4 13.128 35.5159 12.9001 35.7028 12.7394L35.9037 12.5596ZM20.2144 6.92081C24.2241 6.92081 29.3233 10.7187 35.5124 18.3039C35.6485 18.4715 35.7232 18.6806 35.7239 18.8965C35.7134 19.4149 35.3009 19.8276 34.7825 19.8276L34.4651 19.8168C31.9269 19.8054 29.3892 19.8972 26.8585 20.092C23.9492 20.3249 20.9129 20.7162 17.7495 21.2769C17.51 21.3177 17.2639 21.2631 17.0642 21.1247C16.8645 20.9862 16.7269 20.7751 16.6811 20.5364L16.628 20.2718C14.9245 11.3747 16.1199 6.92054 20.2144 6.92054V6.92081ZM27.9903 22.6627H37.9772C38.2791 22.6628 38.5756 22.742 38.8373 22.8923C39.0991 23.0427 39.3169 23.259 39.469 23.5196L44.4732 32.2372C44.6189 32.4974 44.6954 32.7907 44.6954 33.0889C44.6954 33.3871 44.6189 33.6803 44.4732 33.9405L39.469 42.6686C39.3169 42.9293 39.0991 43.1455 38.8375 43.2959C38.5758 43.4462 38.2793 43.5254 37.9775 43.5256H27.9905C27.3768 43.5256 26.8056 43.1976 26.5091 42.6686L21.4946 33.9405C21.3489 33.6803 21.2724 33.387 21.2724 33.0887C21.2724 32.7905 21.3489 32.4972 21.4946 32.237L26.5094 23.5196C26.8054 22.9907 27.3768 22.6627 27.9903 22.6627V22.6627ZM36.7395 24.8104C37.0414 24.8105 37.3379 24.8897 37.5996 25.04C37.8614 25.1904 38.0791 25.4067 38.2313 25.6673L41.9975 32.2372C42.1432 32.4974 42.2197 32.7907 42.2197 33.0889C42.2197 33.3871 42.1432 33.6803 41.9975 33.9405L38.2313 40.5209C38.0791 40.7816 37.8614 40.9979 37.5996 41.1482C37.3379 41.2986 37.0414 41.3777 36.7395 41.3778H29.2282C28.6145 41.3778 28.0434 41.0499 27.7471 40.5209L23.9703 33.9405C23.8246 33.6803 23.748 33.387 23.748 33.0887C23.748 32.7905 23.8246 32.4972 23.9703 32.237L27.7471 25.6673C28.0434 25.1384 28.6145 24.8104 29.2282 24.8104H36.7395ZM35.4065 27.1591H30.5613C29.9476 27.1591 29.387 27.4765 29.0798 28.016L26.6469 32.2372C26.5013 32.4974 26.4248 32.7907 26.4248 33.0889C26.4248 33.3871 26.5013 33.6803 26.6469 33.9405L29.0801 38.1723C29.23 38.4326 29.4459 38.6488 29.7059 38.7992C29.9659 38.9496 30.2609 39.0289 30.5613 39.0292H35.4065C35.7069 39.029 36.002 38.9497 36.2621 38.7993C36.5221 38.6489 36.738 38.4326 36.888 38.1723L39.3209 33.9405C39.4666 33.6803 39.5431 33.387 39.5431 33.0887C39.5431 32.7905 39.4666 32.4972 39.3209 32.237L36.8877 28.016C36.5808 27.4765 36.0202 27.1591 35.4065 27.1591ZM34.116 29.4019C34.7294 29.4019 35.3009 29.7298 35.5969 30.2588L36.7398 32.2372C37.0464 32.7662 37.0464 33.4221 36.7398 33.9405L35.5969 35.9295C35.3009 36.4584 34.7294 36.7864 34.116 36.7864H31.8518C31.5515 36.7861 31.2565 36.7068 30.9965 36.5564C30.7366 36.406 30.5208 36.1897 30.3709 35.9295L29.228 33.9405C28.9214 33.4221 28.9214 32.7662 29.228 32.237L30.3709 30.2588C30.5208 29.9985 30.7366 29.7823 30.9965 29.6319C31.2565 29.4815 31.5515 29.4021 31.8518 29.4019H34.116ZM32.9839 31.613C32.7244 31.6137 32.4696 31.6825 32.2449 31.8125C32.0203 31.9425 31.8337 32.1291 31.7037 32.3537C31.4393 32.8087 31.4393 33.3693 31.7037 33.8346C31.8342 34.0579 32.0213 34.243 32.246 34.3711C32.4707 34.4993 32.7252 34.5661 32.9839 34.5648C33.2426 34.5661 33.4971 34.4993 33.7218 34.3711C33.9465 34.243 34.1335 34.0579 34.2641 33.8346C34.5285 33.3693 34.5285 32.8084 34.2641 32.3537C34.1341 32.129 33.9474 31.9424 33.7227 31.8124C33.498 31.6824 33.2432 31.6137 32.9836 31.613H32.9839ZM21.0079 33.0941H23.6634ZM51.8891 21.753C52.947 16.6221 53.1797 12.6969 52.492 9.84066C52.0901 8.13712 51.3496 6.76183 50.2176 5.75704C49.0221 4.69889 47.5092 4.18079 45.8165 4.18079C43.0129 4.18079 40.0719 5.46074 36.9297 7.88335C35.6497 8.86729 34.3167 10.0627 32.9414 11.4486C32.8249 11.311 32.7085 11.1737 32.5711 11.0572C28.6565 7.57649 25.3664 5.41849 22.5522 4.5827C20.8809 4.08545 19.3149 4.04293 17.8868 4.51906C16.374 5.02687 15.1677 6.07418 14.3216 7.54481C12.9252 9.96741 12.5547 13.1624 13.073 17.0982C13.2848 18.6956 13.6551 20.4411 14.1629 22.3347C13.9652 22.358 13.7702 22.4006 13.5809 22.462C8.63029 24.112 5.11758 25.868 2.991 27.8887C1.7319 29.0842 0.906937 30.4278 0.600083 31.8984C0.293228 33.4641 0.600083 35.0298 1.44644 36.5004C2.84285 38.923 5.4136 40.8275 9.07419 42.3404C10.5448 42.9433 12.2056 43.4933 14.0675 43.9906C13.9805 44.1871 13.9166 44.393 13.8771 44.6043C12.8193 49.7247 12.5866 53.6604 13.2743 56.5061C13.6762 58.2096 14.4272 59.5955 15.5487 60.5897C16.7442 61.6478 18.2571 62.1659 19.9498 62.1659C22.7534 62.1659 25.6941 60.886 28.8366 58.4739C30.1271 57.4689 31.4707 56.2628 32.8672 54.8556C33.0172 55.0814 33.1949 55.2876 33.3961 55.4693C37.3107 58.9501 40.6008 61.1081 43.415 61.9438C45.0866 62.4411 46.6523 62.4836 48.0804 62.0075C49.5933 61.4997 50.7996 60.4524 51.6457 58.9817C53.0424 56.5591 53.4126 53.3641 52.8942 49.4286C52.6721 47.7676 52.2911 45.9585 51.741 43.98C51.9598 43.9592 52.176 43.9168 52.3864 43.8533C57.3372 42.2028 60.8499 40.4467 62.9762 38.4258C64.2354 37.2306 65.0606 35.887 65.3672 34.4163C65.674 32.8507 65.3672 31.2847 64.5208 29.8143C63.1244 27.3915 60.5536 25.4872 56.8931 23.9744C55.3802 23.3504 53.6558 22.7789 51.7304 22.2817C51.804 22.1122 51.8573 21.9347 51.8891 21.7527V21.753Z" fill="#8257E6"/>
</g>
<defs>
<clipPath id="clip0_407_12">
<rect width="65" height="65" fill="white" transform="translate(0.483765 0.763428)"/>
</clipPath>
</defs>
</svg>
