<svg width="65" height="65" viewBox="0 0 65 65" fill="none" xmlns="http://www.w3.org/2000/svg">
<path d="M32.5 38.2891C35.6972 38.2891 38.2891 35.6972 38.2891 32.5C38.2891 29.3028 35.6972 26.7109 32.5 26.7109C29.3028 26.7109 26.7109 29.3028 26.7109 32.5C26.7109 35.6972 29.3028 38.2891 32.5 38.2891Z" fill="#8257E6"/>
<path d="M54.4883 22.9531C53.3711 22.5469 52.2031 22.1406 50.9844 21.7852C51.2891 20.5664 51.543 19.3477 51.7461 18.1797C52.8125 11.4766 51.6445 6.75391 48.3945 4.92578C47.4297 4.36719 46.3633 4.11328 45.1445 4.11328C41.5898 4.11328 37.0703 6.75391 32.5 11.1719C27.9297 6.75391 23.4102 4.11328 19.8555 4.11328C18.6367 4.11328 17.5703 4.36719 16.6055 4.92578C13.3555 6.80469 12.1875 11.5273 13.2539 18.1797C13.457 19.3477 13.7109 20.5664 14.0156 21.7852C12.7969 22.1406 11.6289 22.4961 10.5117 22.9531C4.16406 25.3906 0.710938 28.7422 0.710938 32.5C0.710938 36.2578 4.21484 39.6094 10.5117 42.0469C11.6289 42.4531 12.7969 42.8594 14.0156 43.2148C13.7109 44.4336 13.457 45.6523 13.2539 46.8203C12.1875 53.5234 13.3555 58.2461 16.6055 60.0742C17.5703 60.6328 18.6367 60.8867 19.8555 60.8867C23.4609 60.8867 27.9805 58.2461 32.5 53.8281C37.0703 58.2461 41.5898 60.8867 45.1445 60.8867C46.3633 60.8867 47.4297 60.6328 48.3945 60.0742C51.6445 58.1953 52.8125 53.4727 51.7461 46.8203C51.543 45.6523 51.2891 44.4336 50.9844 43.2148C52.2031 42.8594 53.3711 42.5039 54.4883 42.0469C60.8359 39.6094 64.2891 36.2578 64.2891 32.5C64.2891 28.7422 60.8359 25.3906 54.4883 22.9531V22.9531ZM46.9727 7.46484C49.0547 8.68359 49.7656 12.4414 48.9023 17.7734C48.75 18.8398 48.4961 19.957 48.1914 21.125C45.5508 20.5156 42.7578 20.1094 39.8125 19.8555C38.0859 17.418 36.3086 15.2344 34.5312 13.2539C38.2891 9.54687 42.0977 7.00781 45.1953 7.00781C45.8555 7.00781 46.4648 7.16016 46.9727 7.46484V7.46484ZM41.2852 37.5781C40.3711 39.2031 39.3047 40.8281 38.1875 42.4531C36.3086 42.6055 34.4297 42.6563 32.5 42.6563C30.5195 42.6563 28.6406 42.6055 26.8125 42.4531C25.6953 40.8281 24.6797 39.2031 23.7656 37.5781C22.8008 35.9023 21.8867 34.1758 21.0742 32.5C21.8867 30.8242 22.8008 29.0977 23.7656 27.4219C24.6797 25.7969 25.7461 24.1719 26.8633 22.5469C28.7422 22.3945 30.6211 22.3438 32.5508 22.3438C34.5312 22.3438 36.4102 22.3945 38.2383 22.5469C39.3555 24.1719 40.3711 25.7969 41.2852 27.4219C42.25 29.0977 43.1641 30.8242 43.9766 32.5C43.1133 34.1758 42.25 35.8516 41.2852 37.5781ZM45.5 35.9023C46.2617 37.6797 46.8711 39.4063 47.4297 41.1328C45.7031 41.5391 43.875 41.8438 41.9453 42.0977C42.5547 41.1328 43.2148 40.1172 43.7734 39.0508C44.3828 37.9844 44.9414 36.918 45.5 35.9023ZM32.5 49.6641C31.2812 48.3438 30.1133 46.9219 28.9961 45.4492C30.1641 45.5 31.332 45.5508 32.5 45.5508C33.668 45.5508 34.8359 45.5 36.0039 45.4492C34.8867 46.9219 33.7187 48.3438 32.5 49.6641ZM23.0547 42.0469C21.125 41.793 19.2969 41.4883 17.5703 41.082C18.1289 39.4063 18.7383 37.6289 19.5 35.8516C20.0586 36.8672 20.6172 37.9336 21.2266 38.9492C21.8359 40.0664 22.4453 41.0313 23.0547 42.0469V42.0469ZM19.5 29.0977C18.7383 27.3203 18.1289 25.5938 17.5703 23.8672C19.2969 23.4609 21.125 23.1562 23.0547 22.9023C22.4453 23.8672 21.7852 24.8828 21.2266 25.9492C20.6172 27.0156 20.0586 28.082 19.5 29.0977V29.0977ZM32.5 15.3359C33.7187 16.6563 34.8867 18.0781 36.0039 19.5508C34.8359 19.5 33.668 19.4492 32.5 19.4492C31.332 19.4492 30.1641 19.5 28.9961 19.5508C30.1133 18.0781 31.2812 16.6563 32.5 15.3359ZM43.7734 26L41.9453 22.9531C43.875 23.207 45.7031 23.5117 47.4297 23.918C46.8711 25.5937 46.2617 27.3711 45.5 29.1484C44.9414 28.082 44.3828 27.0156 43.7734 26ZM16.0977 17.7734C15.2344 12.4414 15.9453 8.68359 18.0273 7.46484C18.5352 7.16016 19.1445 7.00781 19.8047 7.00781C22.8516 7.00781 26.6602 9.49609 30.4687 13.2539C28.6914 15.1836 26.9141 17.418 25.1875 19.8555C22.2422 20.1094 19.4492 20.5664 16.8086 21.125C16.5039 19.957 16.3008 18.8398 16.0977 17.7734V17.7734ZM3.55469 32.5C3.55469 30.1133 6.44922 27.5742 11.5273 25.6953C12.543 25.2891 13.6602 24.9336 14.7773 24.6289C15.5898 27.168 16.6055 29.8594 17.8242 32.5508C16.6055 35.2422 15.5391 37.8828 14.7773 40.4219C7.76953 38.3906 3.55469 35.3438 3.55469 32.5ZM18.0273 57.5352C15.9453 56.3164 15.2344 52.5586 16.0977 47.2266C16.25 46.1602 16.5039 45.043 16.8086 43.875C19.4492 44.4844 22.2422 44.8906 25.1875 45.1445C26.9141 47.582 28.6914 49.7656 30.4687 51.7461C26.7109 55.4531 22.9023 57.9922 19.8047 57.9922C19.1445 57.9922 18.5352 57.8398 18.0273 57.5352ZM48.9023 47.2266C49.7656 52.5586 49.0547 56.3164 46.9727 57.5352C46.4648 57.8398 45.8555 57.9922 45.1953 57.9922C42.1484 57.9922 38.3398 55.5039 34.5312 51.7461C36.3086 49.8164 38.0859 47.582 39.8125 45.1445C42.7578 44.8906 45.5508 44.4336 48.1914 43.875C48.4961 45.043 48.6992 46.1602 48.9023 47.2266V47.2266ZM53.4727 39.3047C52.457 39.7109 51.3398 40.0664 50.2227 40.3711C49.4102 37.832 48.3945 35.1406 47.1758 32.4492C48.3945 29.7578 49.4609 27.1172 50.2227 24.5781C57.2305 26.6094 61.4453 29.6563 61.4453 32.5C61.4453 34.8867 58.5 37.4258 53.4727 39.3047Z" fill="#8257E6"/>
</svg>
