<svg width="65" height="66" viewBox="0 0 65 66" fill="none" xmlns="http://www.w3.org/2000/svg">
<g clip-path="url(#clip0_404_36)">
<path d="M45.0379 45.0895C40.4676 54.4333 32.4645 60.72 21.8766 62.7868C20.2532 63.1845 18.5866 63.379 16.9152 63.3657C10.8215 63.3657 5.23555 60.8266 2.52384 56.6676C-1.11718 51.1274 -2.35624 39.3817 9.64845 30.693C9.8922 32.0184 10.3899 33.8364 10.7199 34.9129C8.36334 36.6637 6.43438 38.926 5.07813 41.5297C2.84376 45.9172 3.09259 50.2997 5.73829 54.352C7.56641 57.084 10.4609 58.7446 14.1832 59.2524C18.8324 59.8409 23.549 58.9526 27.6656 56.7133C34.1199 53.3211 38.4211 49.2688 41.2344 43.7286C40.4389 42.9065 39.968 41.8241 39.909 40.6817C39.8665 39.4558 40.312 38.263 41.1479 37.3653C41.9838 36.4675 43.1417 35.938 44.3676 35.893H44.5402C45.7326 35.887 46.8816 36.3397 47.7495 37.1572C48.6174 37.9748 49.1378 39.0947 49.2031 40.2852C49.2683 41.4758 48.8733 42.6458 48.1 43.5533C47.3266 44.4608 46.2339 45.0363 45.0481 45.1606L45.0379 45.0895ZM59.5969 34.8317C65.7973 41.8598 65.9649 50.1321 63.568 54.9309C61.3336 59.3133 55.443 63.7008 47.5211 63.7008C43.823 63.6254 40.1851 62.7506 36.857 61.1364C38.0199 60.3086 39.6703 58.9833 40.5793 58.1555C43.1457 59.2673 45.9076 59.8577 48.7043 59.8922C53.8332 59.8922 57.718 57.4954 60.0336 53.1129C61.5215 50.2184 61.6078 46.8262 60.2012 43.3528C58.4752 38.9825 55.4038 35.2744 51.4313 32.7649C46.2194 29.2516 40.0753 27.3786 33.7899 27.3872H32.302C31.955 28.1886 31.3906 28.8769 30.6726 29.3741C29.9546 29.8713 29.1117 30.1576 28.2395 30.2004H28.082C26.8756 30.1856 25.7224 29.701 24.8674 28.8496C24.0125 27.9982 23.5232 26.8471 23.5033 25.6407C23.4835 24.4343 23.9347 23.2676 24.7612 22.3886C25.5877 21.5096 26.7244 20.9873 27.9297 20.9329H28.0973C28.9372 20.9335 29.7608 21.1656 30.4774 21.6036C31.1941 22.0417 31.7762 22.6688 32.1598 23.4161H33.4852C44.0477 23.4161 53.3203 27.4684 59.5969 34.8317V34.8317ZM17.5754 46.5114C17.4884 45.6681 17.6927 44.8205 18.1543 44.1094C13.5231 36.086 11.0449 25.9145 14.8484 15.3266C17.5754 7.36919 24.441 1.99146 31.8856 1.99146C39.8277 1.99146 48.1 8.94341 49.0902 22.3395C47.8512 21.9282 46.0434 21.3239 44.9566 21.1004C44.6875 16.718 40.9856 5.80005 32.2156 5.96255C29.0723 6.04888 24.441 7.53677 22.0594 10.5938C19.1134 14.243 17.3996 18.732 17.1641 23.4161C16.6058 29.8388 18.1127 36.2719 21.4652 41.7786C21.6503 41.7109 21.8476 41.6833 22.0441 41.6973H22.2066C23.4349 41.6751 24.6217 42.1417 25.506 42.9945C26.3902 43.8473 26.8995 45.0165 26.9217 46.2448C26.9439 47.4731 26.4773 48.6599 25.6245 49.5441C24.7717 50.4283 23.6025 50.9376 22.3742 50.9598H22.2066C21.0084 50.9556 19.8579 50.489 18.9952 49.6575C18.1324 48.8259 17.6238 47.6935 17.5754 46.4961V46.5114Z" fill="#8257E6"/>
</g>
<defs>
<clipPath id="clip0_404_36">
<rect width="65" height="65" fill="white" transform="translate(0 0.346191)"/>
</clipPath>
</defs>
</svg>
