<svg width="65" height="65" viewBox="0 0 65 65" fill="none" xmlns="http://www.w3.org/2000/svg">
<g clip-path="url(#clip0)">
<path fill-rule="evenodd" clip-rule="evenodd" d="M-1 29.4324C-1 29.7992 -0.891186 30.0414 -0.830208 30.2767C-0.432802 31.8072 0.421412 33.1206 1.4349 34.3187C2.8784 36.0261 4.64622 37.4006 6.45716 38.6932C8.02786 39.814 9.63063 40.9099 11.2076 42.0224C11.4784 42.2134 11.7344 42.433 12.0282 42.6673C11.7754 42.803 11.5651 42.9225 11.3464 43.0326C9.26529 44.0804 7.26301 45.2551 5.41738 46.6781C4.30506 47.5359 3.22954 48.4475 2.46995 49.6389C1.24777 51.555 0.815139 53.5964 1.72613 55.776C1.99212 56.4126 2.39793 56.9626 2.97039 57.3691C3.15595 57.5006 3.36411 57.6311 3.58122 57.6822C4.13738 57.8121 4.70405 57.8972 5.26704 58L6.8614 57.999C8.6245 57.8429 10.2294 57.2434 11.6797 56.2498C13.9464 54.6969 15.4735 52.6148 16.13 49.9426C16.6073 48.0004 16.6268 46.056 16.0643 44.1227C16.0105 43.9436 15.9484 43.767 15.8782 43.5936C15.8099 43.4198 15.7295 43.2507 15.6348 43.0342L19.2493 40.9709L19.3035 41.0168C19.2378 41.2303 19.1679 41.4432 19.1085 41.6587C18.679 43.2158 18.3936 44.8 18.4961 46.4161C18.6054 48.1381 19.0895 49.75 20.1051 51.1887C20.9262 52.3523 22.8828 52.3956 23.7554 51.2278C24.065 50.813 24.3652 50.3793 24.5907 49.9165C25.18 48.7085 25.7256 47.4791 26.2886 46.258L26.3869 46.0347C26.3464 46.6128 26.2991 47.1206 26.2776 47.6288C26.2439 48.4225 26.2907 49.2115 26.564 49.9666C26.798 50.6126 27.1959 51.0953 27.9413 51.1803C28.4512 51.2382 28.8575 51.0066 29.2323 50.7128C29.813 50.2573 30.2943 49.6893 30.6469 49.0435C31.6462 47.2218 32.6723 45.4111 33.5781 43.5435C34.5579 41.5235 35.4148 39.4446 36.3247 37.3902L36.475 37.0259C36.69 37.8645 36.8398 38.6859 37.1158 39.4634C37.4365 40.3656 37.8334 41.2464 38.2655 42.1027C38.4699 42.5071 38.4463 42.7696 38.163 43.1088C36.977 44.5282 35.8116 45.9647 34.6452 47.3997C34.3871 47.7165 34.13 48.039 33.915 48.3849C33.7846 48.6034 33.6988 48.8453 33.6627 49.0967C33.6265 49.3282 33.682 49.5645 33.8175 49.7563C33.9531 49.948 34.1581 50.0802 34.3897 50.1252C34.8571 50.2251 35.3363 50.259 35.8132 50.2259C37.4412 50.1069 38.9194 49.5397 40.2262 48.5785C41.9194 47.3335 42.4629 45.6344 42.0529 43.6207C41.942 43.0744 41.7459 42.5432 41.5551 42.0166C41.4694 41.7792 41.4636 41.6127 41.6198 41.3915C42.9734 39.4728 44.1298 37.4371 45.2054 35.3545C45.2479 35.2726 45.2916 35.1907 45.3662 35.103C45.7147 36.9033 46.2394 38.6384 47.1793 40.2127C46.6998 40.6714 46.2252 41.0873 45.7957 41.5454C44.85 42.5546 44.03 43.6505 43.6021 44.9868C43.4181 45.5629 43.2767 46.1484 43.3587 46.7636C43.4859 47.7191 44.2744 48.3401 45.2211 48.1225C47.2471 47.657 48.996 46.7094 50.2739 45.0307C51.1339 43.9004 51.2122 42.6397 50.8521 41.319C50.7533 40.9599 50.6361 40.6067 50.5099 40.195C51.0098 40.041 51.4971 39.8563 52.0012 39.742C54.6185 39.1492 57.2075 39.2526 59.7296 40.1908C61.202 40.7387 62.3916 41.6555 63.0971 43.0978C63.9586 44.8611 63.4824 46.534 61.8081 47.6486C61.652 47.7525 61.4733 47.8344 61.344 47.9643C61.3025 48.012 61.2716 48.0677 61.253 48.1279C61.2345 48.1881 61.2287 48.2515 61.2362 48.314C61.2472 48.3781 61.4181 48.4585 61.5164 48.4575C62.0668 48.4533 62.5131 48.1668 62.9415 47.8725C64.0149 47.1352 64.7981 46.1432 64.9669 44.8371L65 44.739L64.9595 43.8884C64.9432 43.8394 64.9716 43.7908 64.9679 43.7538C64.7398 41.8517 63.7163 40.3766 62.2276 39.2202C60.5034 37.8817 58.4675 37.3307 56.3144 37.2435C54.5681 37.1689 52.824 37.4354 51.1812 38.0278C50.7097 38.1974 50.2423 38.3983 49.7682 38.5877C49.7046 38.4735 49.6362 38.3639 49.58 38.2507C49.0932 37.2613 48.5034 36.3157 48.373 35.1813C48.2805 34.3756 48.167 33.571 48.3599 32.7741C48.5455 32.0076 48.7873 31.2541 49.0149 30.498C49.1321 30.1087 49.0496 29.8906 48.6753 29.7152C48.5449 29.6507 48.4057 29.6053 48.2621 29.5806C47.3422 29.4481 46.4349 29.5237 45.5439 29.781C45.2285 29.8723 44.9993 30.0476 44.9294 30.3941C44.8894 30.5929 44.808 30.7834 44.7512 30.9796C44.5183 31.7952 44.3532 32.6265 43.9769 33.4035C43.0338 35.3525 41.9572 37.2279 40.8554 39.0897C40.7361 39.2906 40.6105 39.4879 40.4601 39.7316C40.0732 38.928 39.6606 38.2068 39.5355 37.3615C39.3941 36.4055 39.2826 35.4511 39.5223 34.5024C39.7005 33.7948 39.9334 33.1003 40.1479 32.4021C40.2493 32.0702 40.2026 31.8959 39.8998 31.7211C39.7468 31.6329 39.5739 31.5547 39.4014 31.5291C38.4582 31.3865 37.4944 31.4647 36.587 31.7576C36.3016 31.8495 36.1517 32.0326 36.0645 32.3249C35.808 33.1869 35.5893 34.0698 35.2292 34.8896C33.771 38.2084 32.2707 41.5099 30.772 44.811C30.4593 45.5003 30.0929 46.1656 29.7401 46.8367C29.6508 47.0068 29.5204 47.1566 29.409 47.3162C29.3196 47.2114 29.2849 47.1393 29.2854 47.0673C29.2881 46.6431 29.2371 46.2063 29.3186 45.7962C29.5688 44.5557 29.8453 43.3206 30.1481 42.0918C30.3951 41.0763 30.6827 40.0702 30.9565 39.0616C31.0485 38.7239 31.0501 38.4082 30.8057 38.1244C30.3951 37.649 29.5372 37.5446 29.0284 37.9109L28.8034 38.0372L28.847 37.6772C28.9543 36.9054 28.9758 36.1362 28.7624 35.3759C28.4964 34.4283 27.8151 33.883 26.8248 33.9133C26.3632 33.9274 25.8786 34.0056 25.4512 34.1726C23.6539 34.8719 22.2719 36.1101 21.0955 37.5999C20.9864 37.7383 20.8513 37.8542 20.6976 37.9412C19.1768 38.7782 17.6513 39.6048 16.1263 40.4345L14.4289 41.3576C13.9737 40.9266 13.56 40.4793 13.0906 40.1C11.6571 38.9395 10.2005 37.8076 8.75697 36.6601C7.47748 35.6431 6.23795 34.5838 5.28964 33.237C4.5842 32.2351 4.12949 31.1388 4.08586 29.9C4.03066 28.3215 4.48169 26.8791 5.29122 25.5365C6.32679 23.8187 7.73927 22.44 9.2921 21.1913C10.9348 19.8711 12.7116 18.7502 14.553 17.7269C17.1293 16.2956 19.7792 15.0286 22.6205 14.1921C25.5337 13.3342 28.4896 12.8432 31.5385 13.1855C32.737 13.3202 33.9008 13.5925 34.9695 14.1744C35.788 14.6195 36.4593 15.2024 36.7715 16.1135C37.0795 17.0099 37.0701 17.9184 36.8567 18.829C36.423 20.6731 35.4058 22.1932 34.1258 23.5515C32.0263 25.7781 29.4652 27.294 26.5819 28.2954C24.9241 28.8719 23.1992 29.2371 21.4487 29.3823C20.0142 29.5018 18.6096 29.3755 17.2513 28.8803C16.3518 28.5521 15.5686 28.0501 14.9388 27.3216C14.8264 27.1912 14.6823 27.0498 14.4726 27.1719C14.267 27.2919 14.2308 27.486 14.2996 27.6827C14.4148 28.0094 14.5209 28.3496 14.7002 28.6418C15.1507 29.375 15.8078 29.9067 16.5311 30.3628C17.9204 31.24 19.4733 31.5348 21.0834 31.6032C23.5267 31.7081 25.9106 31.3459 28.2609 30.6952C31.6163 29.7664 34.5337 28.1258 36.8735 25.5375C38.8216 23.3824 40.2131 20.9502 40.5111 18.0134C40.6567 16.58 40.5017 15.1757 39.8257 13.8681C39.0923 12.4513 37.9264 11.3978 36.5323 10.6719C34.5022 9.61523 32.3112 9 30.0498 9H27.7841C25.0454 9 22.3976 9.77908 19.8239 10.7084C17.8758 11.4124 15.9655 12.2431 14.1109 13.1626C10.0722 15.1658 6.31102 17.5813 3.22166 20.9027C1.6825 22.5574 0.379359 24.3833 -0.370247 26.5332C-0.596493 27.175 -0.791393 27.8274 -0.954267 28.4879L-1 29.4324ZM13.6799 47.2802C13.5048 49.607 12.4424 51.4934 10.7062 53.0213C9.72946 53.8802 8.60925 54.4918 7.30454 54.7068C6.83144 54.7845 6.34729 54.8033 5.88838 54.6087C5.23392 54.3311 5.08726 53.7545 5.07465 53.1403C5.0552 52.1613 5.40056 51.2763 5.87419 50.4341C6.49238 49.3362 7.39863 48.4992 8.36639 47.7175C9.89084 46.4855 11.5446 45.4429 13.2383 44.4588L13.366 44.4066C13.6278 45.3667 13.7524 46.3149 13.6799 47.2802ZM26.9047 37.1679C26.7811 37.9109 26.6266 38.6545 26.4079 39.3747C25.652 41.8674 24.6811 44.2829 23.6313 46.6661C23.4374 47.107 23.1551 47.5093 22.9096 47.9273C22.8678 47.9916 22.8178 48.0501 22.7608 48.1016C22.457 48.3995 22.1689 48.3839 22.0154 47.9941C21.8367 47.5411 21.7268 47.0564 21.6322 46.5768C21.5686 46.2549 21.5838 45.9167 21.5639 45.5869C21.5844 43.2419 22.3051 41.1108 23.5278 39.1268C24.0319 38.3086 24.5807 37.529 25.4191 37.0113C25.68 36.8503 25.9622 36.7263 26.2576 36.6429C26.7044 36.5182 26.9788 36.7233 26.9047 37.1679ZM35.9273 48.579L39.1701 44.8204C39.3052 46.2162 36.915 49.0028 35.9273 48.579ZM46.2846 46.0498C46.0554 46.1802 45.8057 46.2742 45.5707 46.3947C45.3557 46.5053 45.2847 46.3937 45.2784 46.21C45.2753 46.0828 45.2917 45.9559 45.3273 45.8338C45.7652 44.3006 46.5711 42.9919 47.7701 41.9274L47.8542 41.8846C48.4246 43.4683 47.7654 45.2076 46.2846 46.0498Z" fill="#8257E6"/>
</g>
<defs>
<clipPath id="clip0">
<rect width="65" height="65" fill="white"/>
</clipPath>
</defs>
</svg>
