<svg width="65" height="66" viewBox="0 0 65 66" fill="none" xmlns="http://www.w3.org/2000/svg">
<g clip-path="url(#clip0_404_57)">
<path d="M54.5116 1.86785L51.0006 2.08672L51.2743 9.38754C51.2886 9.79125 50.8229 10.0269 50.5055 9.77652L48.1543 7.92301L45.369 10.0365C45.2973 10.091 45.2115 10.1239 45.1218 10.1314C45.032 10.139 44.942 10.1208 44.8622 10.079C44.7824 10.0373 44.7162 9.97365 44.6712 9.89562C44.6262 9.81759 44.6044 9.72837 44.6083 9.6384L44.9216 2.46656L10.0918 4.64457C9.26324 4.69619 8.48773 5.06966 7.93079 5.68523C7.37385 6.30081 7.07961 7.10972 7.11091 7.93926L9.07106 60.1617C9.10099 60.9596 9.42989 61.717 9.99246 62.2837C10.555 62.8503 11.3101 63.1846 12.1078 63.2202L54.567 65.1266C54.9962 65.1455 55.4248 65.0775 55.827 64.9265C56.2293 64.7755 56.5968 64.5447 56.9075 64.248C57.2183 63.9514 57.4657 63.5947 57.6347 63.1996C57.8037 62.8046 57.8907 62.3794 57.8906 61.9497V5.04269C57.8909 4.60817 57.802 4.17822 57.6295 3.77941C57.457 3.3806 57.2045 3.02141 56.8877 2.72402C56.5712 2.42647 56.1971 2.19697 55.7884 2.04971C55.3797 1.90245 54.9452 1.84056 54.5116 1.86785V1.86785ZM33.4577 12.6269C41.7391 12.6269 46.2617 17.0565 46.2617 25.4842C45.1425 26.3541 36.8063 26.9467 36.8063 25.7091C36.982 20.9865 34.8679 20.7798 33.6934 20.7798C32.5772 20.7798 30.6978 21.116 30.6978 23.6459C30.6978 29.8859 46.7904 29.5492 46.7904 42.1425C46.7904 49.2264 41.0343 53.1391 33.6934 53.1391C26.1168 53.1391 19.4965 50.074 20.244 39.447C20.5375 38.1993 30.1691 38.4959 30.1691 39.447C30.0524 43.8319 31.0502 45.1218 33.575 45.1218C35.5134 45.1218 36.3949 44.0539 36.3949 42.2547C36.3949 35.8456 20.5375 35.6211 20.5375 23.8714C20.5375 17.1251 25.1779 12.6269 33.4583 12.6269H33.4577Z" fill="#8257E6"/>
</g>
<defs>
<clipPath id="clip0_404_57">
<rect width="65" height="65" fill="white" transform="translate(0 0.846191)"/>
</clipPath>
</defs>
</svg>
