<svg width="65" height="65" viewBox="0 0 65 65" fill="none" xmlns="http://www.w3.org/2000/svg">
<g clip-path="url(#clip0_407_8)">
<path d="M20.8108 0V21.7615H41.8681C42.6264 21.7615 43.2277 22.4006 43.2277 23.0696V44.2H64.9621V1.35958C64.9621 0.998999 64.8188 0.653184 64.5638 0.398213C64.3089 0.143241 63.9631 0 63.6025 0L20.8108 0ZM19.4566 1.35417L0.232895 20.6023C0.138189 20.6975 0.073811 20.8187 0.0478838 20.9504C0.0219565 21.0822 0.0356421 21.2187 0.0872138 21.3427C0.138785 21.4667 0.225932 21.5727 0.337657 21.6472C0.449382 21.7217 0.580678 21.7615 0.714978 21.7615H19.4566V1.35417ZM20.8108 23.1156V42.8404C20.8108 43.5933 21.4175 44.2 22.1704 44.2H41.8735V24.4238C41.8735 23.6708 41.2669 23.1183 40.5139 23.1156H20.8108ZM43.2277 45.5542V64.3175C43.2277 64.9242 43.9616 65.2275 44.3923 64.7996L63.6079 45.5542H43.2277Z" fill="#8257E6"/>
</g>
<defs>
<clipPath id="clip0_407_8">
<rect width="65" height="65" fill="white"/>
</clipPath>
</defs>
</svg>
