<svg width="65" height="65" viewBox="0 0 65 65" fill="none" xmlns="http://www.w3.org/2000/svg">
<path d="M43.9129 18.3137L43.7098 19.3727C43.3956 21.3796 43.5094 21.9537 44.3706 22.6985L45.2021 23.3864L44.3408 27.2268C43.8262 29.5181 43.1952 31.4383 42.7944 32.0693C42.4504 32.6137 42.0496 33.4154 41.9629 33.846C41.8194 34.3606 41.3319 34.8779 40.5871 35.3356C39.929 35.7093 38.6371 36.7114 37.7217 37.5158C36.9904 38.1739 36.4867 38.5775 36.2131 38.7508L35.3194 39.4577C35.0323 39.9181 34.8698 40.2891 34.8075 40.5708C34.7452 40.8606 34.7804 41.0529 34.8725 41.1937C34.9619 41.3291 35.1162 41.4239 35.3275 41.4835C35.5776 41.5421 35.835 41.5631 36.0912 41.5458C36.671 41.5062 37.2448 41.4045 37.8029 41.2425C37.9925 41.191 38.1415 41.1423 38.2715 41.0989C38.4719 40.8525 38.935 40.3866 39.7556 39.5768C41.9331 37.4291 42.7646 36.2537 41.906 36.5706C41.5892 36.6843 41.7327 36.3973 42.2771 35.8231C43.4254 34.7046 44.0835 33.0146 45.4594 27.7143C46.5481 23.53 46.5481 23.4704 47.3498 23.4704C47.7262 23.4704 48.7906 23.5354 48.7906 23.5354V18.3137H46.3477H43.9129ZM54.3102 26.8856C54.1369 26.8856 53.8498 27.1456 53.6792 27.4327C53.365 27.9473 53.736 28.2614 58.4648 31.2135C61.2733 32.9929 63.5375 34.5096 63.4806 34.626C63.4237 34.71 61.1298 36.2023 58.3808 37.9221C53.3921 41.015 53.365 41.0448 53.8227 41.6758C54.3969 42.4206 53.8227 42.6779 60.2983 38.6371L65 35.6281V33.3639L59.754 30.1248C56.9183 28.3481 54.4537 26.9154 54.3102 26.8856ZM10.7467 27.2025C10.6031 27.2025 8.13854 28.665 5.30292 30.4118L0 33.651V35.9152L5.27312 39.2112C8.19812 41.015 10.6627 42.5073 10.7765 42.5073C10.8902 42.5073 11.1204 42.2473 11.3506 41.9331C11.6946 41.3887 11.4048 41.1585 6.56229 38.0927C1.95 35.1975 1.4625 34.7966 1.92292 34.4825C2.21 34.2821 4.3875 32.9333 6.73833 31.4735C12.0981 28.1775 11.811 28.405 11.3804 27.7171C11.2098 27.4327 10.92 27.1754 10.7494 27.2025H10.7467ZM34.2658 27.2648C33.475 27.2593 31.7742 28.4646 26.6825 32.6218C26.4631 33.1446 26.4442 33.5048 26.5444 33.7377C26.6094 33.8975 26.7285 34.0085 26.8938 34.0898C27.0563 34.171 27.2675 34.2198 27.5004 34.2387C27.9635 34.2793 28.5106 34.2062 28.9521 34.1196L29.25 34.0518C29.352 33.9151 29.4859 33.8054 29.64 33.7323C29.9542 33.5589 31.2731 32.3564 32.5921 31.0673C34.9131 28.7164 35.4575 27.6548 34.5123 27.3108C34.4347 27.28 34.352 27.2643 34.2685 27.2648H34.2658ZM40.2133 28.8979C39.5173 28.9168 38.2633 29.7239 36.1156 31.4383C35.0377 32.3131 34.3552 32.7843 33.9896 32.8818L32.5704 34.0031C32.0369 34.9781 31.9583 35.5821 32.0992 35.9152C32.1344 35.9974 32.1856 36.0717 32.2497 36.134C32.3139 36.1963 32.3897 36.2453 32.4729 36.2781C32.6798 36.3598 32.9005 36.4012 33.1229 36.4C33.6545 36.3943 34.1829 36.3169 34.6938 36.1698C34.96 36.0983 35.223 36.0152 35.4819 35.9206L35.5604 35.8881L35.704 35.8123C35.9748 35.4629 36.5977 34.8048 37.3777 34.0464C39.8423 31.6685 41.1017 29.9785 40.8444 29.3475C40.7279 29.0414 40.5275 28.8871 40.2133 28.8979V28.8979ZM33.6483 31.8229C33.4479 31.8446 32.9983 32.1912 32.1885 32.9008C31.0185 33.9354 29.7429 34.5312 29.3015 34.2658C29.1989 34.289 29.0959 34.3106 28.9927 34.3308C28.5431 34.4202 27.9825 34.4933 27.4815 34.4527C27.2454 34.4384 27.014 34.3805 26.799 34.2821C26.5961 34.1893 26.4343 34.0255 26.344 33.8216C26.2437 33.5779 26.2438 33.2746 26.3575 32.8873L24.5971 34.3335L20.6131 37.6296V42.9731L33.6673 32.6896C33.6648 32.577 33.6794 32.4646 33.7106 32.3564C33.8108 31.9935 33.8054 31.8093 33.6483 31.8256V31.8229ZM39.2654 33.5535C39.0677 33.5535 38.7373 33.8325 38.2092 34.3931C37.4915 35.1596 36.3621 35.9016 35.7635 36.0533L35.6715 36.1021C35.5732 36.1426 35.4738 36.1806 35.3735 36.2158C35.211 36.27 34.9998 36.335 34.756 36.4C34.2685 36.5327 33.6619 36.6546 33.1202 36.641C32.8648 36.6407 32.6119 36.591 32.3754 36.4948C32.1525 36.4029 31.9738 36.2281 31.8771 36.0073C31.72 35.6308 31.7823 35.1027 32.1263 34.3525L20.6104 43.4227V46.6862H25.6696L36.4 38.2579C36.679 37.9491 37.0987 37.5266 37.6648 36.9985C39.1815 35.5929 39.5254 35.1081 39.5254 34.3904C39.5254 33.8325 39.4631 33.5508 39.2654 33.5508V33.5535ZM41.8194 38.8348L40.9012 39.7502C40.3867 40.2377 39.4685 40.8389 38.8402 41.0962L38.7156 41.1504L38.7075 41.1639L38.6804 41.191C38.656 41.21 38.6452 41.2127 38.6262 41.2208C38.3754 41.3157 38.1206 41.3998 37.8625 41.4727C37.2886 41.6397 36.6984 41.7441 36.1021 41.7841C35.8201 41.8022 35.5371 41.7776 35.2625 41.711C35.0242 41.6586 34.8138 41.5196 34.6721 41.321C34.5421 41.1206 34.5042 40.8525 34.5773 40.5221C34.6355 40.2868 34.7218 40.0595 34.8346 39.845L26.176 46.6862H37.6919L39.0677 45.11C40.9581 42.9054 41.8194 41.3291 41.8194 39.9804V38.8348Z" fill="#8257E6"/>
</svg>
