<svg width="66" height="66" viewBox="0 0 66 66" fill="none" xmlns="http://www.w3.org/2000/svg">
<g clip-path="url(#clip0_404_52)">
<path d="M32.5854 13.7644C23.9186 13.7644 18.5037 18.096 16.3354 26.7629C19.5844 22.4307 23.3772 20.8062 27.7094 21.8894C30.1829 22.5059 31.9506 24.2995 33.9082 26.2871C37.0943 29.5203 40.782 33.2634 48.8354 33.2634C57.5017 33.2634 62.917 28.9312 65.0854 20.2624C61.8359 24.5971 58.0436 26.2216 53.7109 25.1384C51.2379 24.5214 49.4722 22.7283 47.512 20.7407C44.328 17.5075 40.6413 13.7644 32.5854 13.7644V13.7644ZM16.3354 33.2634C7.66906 33.2634 2.25375 37.5955 0.0853882 46.2644C3.33437 41.9297 7.12672 40.3052 11.4594 41.3884C13.9329 42.0054 15.7006 43.7985 17.6582 45.786C20.8443 49.0193 24.532 52.7624 32.5854 52.7624C41.2517 52.7624 46.667 48.4307 48.8354 39.7639C45.5859 44.096 41.7936 45.7205 37.4609 44.6374C34.9879 44.0209 33.2222 42.2273 31.262 40.2397C28.078 37.0065 24.3913 33.2634 16.3354 33.2634Z" fill="#8257E6"/>
</g>
<defs>
<clipPath id="clip0_404_52">
<rect width="65" height="65" fill="white" transform="translate(0.083374 0.763428)"/>
</clipPath>
</defs>
</svg>
