<svg width="66" height="66" viewBox="0 0 66 66" fill="none" xmlns="http://www.w3.org/2000/svg">
<g clip-path="url(#clip0_404_33)">
<path d="M11.5761 24.4973H62.1898V61.9079H11.5761V24.4973Z" fill="#212121"/>
<path d="M0.825684 33.0845V64.8228H64.3022V1.34619H0.825684V33.0845ZM51.9776 30.5454C53.498 30.8982 54.8798 31.6934 55.9487 32.8306C56.5372 33.4432 57.0488 34.1253 57.4722 34.8618C57.4722 34.9431 54.73 36.7966 53.0593 37.8325C52.9983 37.8731 52.7546 37.6091 52.4855 37.2079C52.1805 36.6816 51.7471 36.2412 51.2259 35.9278C50.7046 35.6143 50.1124 35.438 49.5046 35.4153C47.58 35.2833 46.3409 36.2938 46.3511 37.9544C46.3352 38.3678 46.4298 38.778 46.6253 39.1427C47.0468 40.0212 47.8339 40.5442 50.3019 41.6106C54.8468 43.5657 56.7917 44.8556 58.0003 46.6888C59.3511 48.72 59.6507 52.0005 58.7366 54.4278C57.721 57.0685 55.2327 58.861 51.7136 59.4552C50.1063 59.6393 48.4823 59.6222 46.8792 59.4044C44.4222 58.9994 42.159 57.8197 40.4198 56.0376C39.8358 55.3927 38.6983 53.7118 38.7694 53.5899C38.9548 53.4523 39.15 53.3284 39.3534 53.2192L41.7046 51.9192L43.5276 50.863L43.9085 51.4267C44.5513 52.3461 45.3692 53.1296 46.3155 53.7321C48.3468 54.7985 51.1194 54.6513 52.4905 53.4173C52.9509 52.9651 53.2381 52.3658 53.3021 51.7237C53.3661 51.0816 53.2029 50.4374 52.8409 49.9032C52.3331 49.1974 51.3175 48.6032 48.4788 47.3642C45.2034 45.9524 43.7917 45.079 42.5019 43.6876C41.6966 42.7694 41.1021 41.6861 40.7601 40.5138C40.5049 39.1744 40.4672 37.8026 40.6483 36.4513C41.3237 33.2876 43.6952 31.0786 47.1585 30.4235C48.7624 30.2251 50.387 30.2696 51.9776 30.5556V30.5454ZM37.0784 33.2063V35.8063H28.8366V59.2825H22.9917V35.8013H14.7296V33.2622C14.7039 32.3866 14.7242 31.5103 14.7905 30.6368C14.8312 30.5911 19.8687 30.5911 25.9624 30.5911H37.048L37.0784 33.2063Z" fill="#8257E6"/>
</g>
<defs>
<clipPath id="clip0_404_33">
<rect width="65" height="65" fill="white" transform="translate(0.0639648 0.630127)"/>
</clipPath>
</defs>
</svg>
