<svg width="32" height="32" viewBox="0 0 32 32" fill="none" xmlns="http://www.w3.org/2000/svg">
<path d="M7.77247 25.1753C7.33836 24.8859 6.96503 24.5169 6.52802 23.9945C6.30119 23.7169 6.07641 23.4376 5.85371 23.1567C5.18373 22.3246 4.7612 21.9412 4.3242 21.7834C3.96287 21.6537 3.66788 21.3858 3.50411 21.0386C3.34033 20.6914 3.3212 20.2933 3.45092 19.932C3.58063 19.5706 3.84857 19.2756 4.19579 19.1119C4.54301 18.9481 4.94107 18.929 5.30239 19.0587C6.39056 19.4494 7.12709 20.1223 8.11975 21.3566C7.98373 21.1873 8.61174 21.9744 8.74632 22.1365C9.02125 22.465 9.22384 22.6647 9.38301 22.7703C9.6782 22.9686 10.2324 23.0539 11.0471 22.9729C11.0804 22.4201 11.1831 21.8833 11.3394 21.3884C7.04461 20.3379 4.6136 17.5683 4.6136 12.1332C4.6136 10.3389 5.149 8.72401 6.14456 7.3696C5.82911 6.07595 5.87686 4.51171 6.58156 2.75068C6.66154 2.55148 6.78483 2.37256 6.9425 2.2269C7.10018 2.08124 7.28829 1.97248 7.49319 1.90851C7.6104 1.87378 7.67696 1.85786 7.79417 1.8405C8.95614 1.66252 10.5971 2.0865 12.7358 3.42644C14.0103 3.12848 15.315 2.97892 16.6239 2.98076C17.9436 2.98076 19.2546 3.13125 20.5078 3.42644C22.645 2.07637 24.2889 1.65239 25.4595 1.8405C25.5825 1.85931 25.6867 1.88391 25.7749 1.91285C25.9758 1.97909 26.1598 2.08857 26.3138 2.23358C26.4678 2.37858 26.5881 2.55559 26.6663 2.75213C27.371 4.51171 27.4188 6.07595 27.1033 7.36815C28.1032 8.72257 28.6343 10.3273 28.6343 12.1332C28.6343 17.5697 26.212 20.3306 21.9172 21.3826C22.098 21.9831 22.1921 22.6546 22.1921 23.3795C22.1922 24.6896 22.1865 25.9996 22.1747 27.3096C22.4997 27.3805 22.7903 27.5612 22.9977 27.8213C23.2051 28.0813 23.3165 28.4049 23.3133 28.7375C23.3101 29.0701 23.1924 29.3914 22.98 29.6474C22.7676 29.9034 22.4735 30.0784 22.1472 30.1429C20.4991 30.4728 19.2778 29.3731 19.2778 27.9362L19.2807 27.2908L19.2879 26.2707C19.2952 25.2462 19.298 24.3346 19.298 23.3795C19.298 22.3709 19.0332 21.7125 18.6831 21.4116C17.7266 20.5868 18.2113 19.0167 19.4645 18.8764C23.7578 18.3945 25.7402 16.7319 25.7402 12.1332C25.7402 10.7513 25.2887 9.6096 24.4191 8.65456C24.2359 8.45377 24.1129 8.20544 24.0643 7.938C24.0156 7.67057 24.0433 7.39484 24.1441 7.14241C24.3844 6.54334 24.4871 5.75761 24.2831 4.80691L24.2686 4.81125C23.5581 5.01239 22.6624 5.44794 21.58 6.18448C21.4055 6.30293 21.2072 6.38178 20.9989 6.41553C20.7907 6.44927 20.5776 6.43709 20.3746 6.37983C19.1532 6.04164 17.8913 5.87173 16.6239 5.87482C15.3361 5.87482 14.0598 6.04701 12.8732 6.38127C12.671 6.43808 12.4588 6.45016 12.2514 6.41668C12.044 6.38319 11.8463 6.30494 11.6722 6.18737C10.584 5.45373 9.68399 5.01962 8.96916 4.81704C8.76079 5.76195 8.86353 6.54479 9.10229 7.14241C9.2033 7.39471 9.23122 7.67036 9.18285 7.93779C9.13449 8.20522 9.01178 8.45362 8.8288 8.65456C7.96492 9.60091 7.50766 10.7643 7.50766 12.1332C7.50766 16.7232 9.49154 18.3959 13.7617 18.8764C15.0134 19.0167 15.4996 20.5795 14.5489 21.4058C14.2711 21.6489 13.9281 22.465 13.9281 23.3795V27.9377C13.9281 29.3644 12.7199 30.4338 11.092 30.1487C10.7617 30.0907 10.4618 29.9198 10.2436 29.6653C10.0253 29.4107 9.9023 29.0882 9.89546 28.753C9.88863 28.4177 9.99843 28.0905 10.2061 27.8273C10.4138 27.564 10.7064 27.381 11.0341 27.3096V25.8771C9.71727 25.9654 8.62911 25.7497 7.77247 25.1753V25.1753Z" fill="#8257E6"/>
</svg>
