<svg width="32" height="32" viewBox="0 0 32 32" fill="none" xmlns="http://www.w3.org/2000/svg">
<path d="M9.17748 7.36445C9.17715 8.01886 8.91687 8.64634 8.4539 9.10885C7.99093 9.57135 7.3632 9.831 6.70878 9.83068C6.05437 9.83035 5.42689 9.57007 4.96438 9.1071C4.50188 8.64413 4.24223 8.01639 4.24255 7.36198C4.24288 6.70757 4.50316 6.08009 4.96613 5.61758C5.4291 5.15508 6.05684 4.89543 6.71125 4.89575C7.36566 4.89608 7.99314 5.15636 8.45565 5.61933C8.91816 6.0823 9.17781 6.71004 9.17748 7.36445V7.36445ZM9.2515 11.6578H4.31658V27.1041H9.2515V11.6578ZM17.0487 11.6578H12.1384V27.1041H16.9993V18.9985C16.9993 14.4831 22.8842 14.0636 22.8842 18.9985V27.1041H27.7575V17.3207C27.7575 9.70854 19.0473 9.9923 16.9993 13.7305L17.0487 11.6578V11.6578Z" fill="#8257E6"/>
</svg>
