<svg width="19" height="18" viewBox="0 0 19 18" fill="none" xmlns="http://www.w3.org/2000/svg">
<g clip-path="url(#clip0)">
<path d="M15.9914 16.0095L17.4027 0.275391H1.70386L1.7223 0.479568L3.11299 16.0117L3.12479 16.141L9.4939 17.9022H9.59424L15.9781 16.1395L15.9899 16.0102L15.9914 16.0095ZM9.56694 3.71188H14.1285L13.9913 5.29829L9.49095 7.29012L9.5662 7.64853H13.7892L13.303 13.1944L9.55071 14.2299L5.79992 13.1958L5.56384 10.5401H7.10798L7.23192 11.8863L7.24372 12.017L9.51973 12.6193H9.61785L11.8688 11.9965L11.8798 11.8665L12.0923 9.37963L12.1093 9.17692H5.43473L5.29455 7.58097L9.9491 5.59722L9.87533 5.23734H5.09462L4.95813 3.70968H9.56178L9.56694 3.71188Z" fill="#8257E6"/>
</g>
<defs>
<clipPath id="clip0">
<rect width="17.9022" height="17.9022" fill="white" transform="translate(0.602173)"/>
</clipPath>
</defs>
</svg>
