<svg width="17" height="18" viewBox="0 0 17 18" fill="none" xmlns="http://www.w3.org/2000/svg">
<g clip-path="url(#clip0)">
<path d="M3.75 4.12488C3.75 3.42868 4.02656 2.76101 4.51885 2.26872C5.01113 1.77644 5.67881 1.49988 6.375 1.49988H9V6.74988H6.375C5.67881 6.74988 5.01113 6.47332 4.51885 5.98103C4.02656 5.48875 3.75 4.82107 3.75 4.12488Z" stroke="#8257E6" stroke-width="2" stroke-linecap="round" stroke-linejoin="round"/>
<path d="M9 1.49988H11.625C11.9697 1.49988 12.3111 1.56778 12.6295 1.69969C12.948 1.83161 13.2374 2.02497 13.4812 2.26872C13.7249 2.51248 13.9183 2.80185 14.0502 3.12033C14.1821 3.43881 14.25 3.78016 14.25 4.12488C14.25 4.4696 14.1821 4.81094 14.0502 5.12942C13.9183 5.4479 13.7249 5.73728 13.4812 5.98103C13.2374 6.22479 12.948 6.41814 12.6295 6.55006C12.3111 6.68198 11.9697 6.74988 11.625 6.74988H9V1.49988Z" stroke="#8257E6" stroke-width="2" stroke-linecap="round" stroke-linejoin="round"/>
<path d="M9 9.375C9 9.03028 9.0679 8.68894 9.19982 8.37046C9.33173 8.05198 9.52509 7.7626 9.76885 7.51884C10.0126 7.27509 10.302 7.08173 10.6205 6.94982C10.9389 6.8179 11.2803 6.75 11.625 6.75C11.9697 6.75 12.3111 6.8179 12.6295 6.94982C12.948 7.08173 13.2374 7.27509 13.4812 7.51884C13.7249 7.7626 13.9183 8.05198 14.0502 8.37046C14.1821 8.68894 14.25 9.03028 14.25 9.375C14.25 9.71972 14.1821 10.0611 14.0502 10.3795C13.9183 10.698 13.7249 10.9874 13.4812 11.2312C13.2374 11.4749 12.948 11.6683 12.6295 11.8002C12.3111 11.9321 11.9697 12 11.625 12C11.2803 12 10.9389 11.9321 10.6205 11.8002C10.302 11.6683 10.0126 11.4749 9.76885 11.2312C9.52509 10.9874 9.33173 10.698 9.19982 10.3795C9.0679 10.0611 9 9.71972 9 9.375V9.375Z" stroke="#8257E6" stroke-width="2" stroke-linecap="round" stroke-linejoin="round"/>
<path d="M3.75 14.6249C3.75 13.9287 4.02656 13.261 4.51885 12.7687C5.01113 12.2764 5.67881 11.9999 6.375 11.9999H9V14.6249C9 15.3211 8.72344 15.9888 8.23116 16.481C7.73887 16.9733 7.07119 17.2499 6.375 17.2499C5.67881 17.2499 5.01113 16.9733 4.51885 16.481C4.02656 15.9888 3.75 15.3211 3.75 14.6249Z" stroke="#8257E6" stroke-width="2" stroke-linecap="round" stroke-linejoin="round"/>
<path d="M3.75 9.375C3.75 8.67881 4.02656 8.01113 4.51885 7.51884C5.01113 7.02656 5.67881 6.75 6.375 6.75H9V12H6.375C5.67881 12 5.01113 11.7234 4.51885 11.2312C4.02656 10.7389 3.75 10.0712 3.75 9.375Z" stroke="#8257E6" stroke-width="2" stroke-linecap="round" stroke-linejoin="round"/>
</g>
<defs>
<clipPath id="clip0">
<rect width="18" height="18" fill="white"/>
</clipPath>
</defs>
</svg>
