<svg width="19" height="18" viewBox="0 0 19 18" fill="none" xmlns="http://www.w3.org/2000/svg">
<g clip-path="url(#clip0)">
<path fill-rule="evenodd" clip-rule="evenodd" d="M0.810242 0H18.7125V17.9022H0.810242V0ZM14.4957 15.008C13.6655 15.008 13.1963 14.5754 12.8361 13.9861L11.4688 14.7805C11.9626 15.7562 12.9718 16.5006 14.5345 16.5006C16.1323 16.5006 17.3221 15.6712 17.3221 14.1562C17.3221 12.7516 16.515 12.1273 15.0858 11.5134L14.6651 11.3336C13.943 11.0203 13.6305 10.8167 13.6305 10.3117C13.6305 9.90366 13.9438 9.59111 14.4361 9.59111C14.9187 9.59111 15.2297 9.79475 15.5184 10.3117L16.8283 9.47102C16.274 8.49609 15.5057 8.12388 14.4361 8.12388C12.9338 8.12388 11.9723 9.08463 11.9723 10.3467C11.9723 11.7155 12.7779 12.3637 13.9922 12.8806L14.4129 13.0612C15.1805 13.3968 15.6378 13.6012 15.6378 14.1778C15.6378 14.6597 15.1924 15.008 14.4957 15.008ZM7.97635 14.9968C7.39826 14.9968 7.15732 14.6015 6.89327 14.1316L5.52375 14.961C5.92058 15.8009 6.70082 16.4976 8.04721 16.4976C9.53832 16.4976 10.5595 15.7047 10.5595 13.963V8.21936H8.87743V13.9406C8.87743 14.7813 8.52834 14.9968 7.97561 14.9968H7.97635Z" fill="#8257E6"/>
</g>
<defs>
<clipPath id="clip0">
<rect width="17.9022" height="17.9022" fill="white" transform="translate(0.810242)"/>
</clipPath>
</defs>
</svg>
