<svg width="21" height="20" viewBox="0 0 21 20" fill="none" xmlns="http://www.w3.org/2000/svg">
<g clip-path="url(#clip0)">
<path fill-rule="evenodd" clip-rule="evenodd" d="M0.411987 8.97776C0.411987 9.08966 0.445179 9.16352 0.463779 9.2353C0.585001 9.70215 0.845563 10.1028 1.15471 10.4682C1.59502 10.9891 2.13426 11.4083 2.68665 11.8026C3.16577 12.1445 3.65466 12.4787 4.1357 12.8181C4.21828 12.8764 4.29637 12.9434 4.386 13.0148C4.30887 13.0562 4.24474 13.0927 4.17803 13.1263C3.54322 13.4459 2.93246 13.8042 2.36949 14.2382C2.0302 14.4999 1.70213 14.778 1.47043 15.1414C1.09763 15.7258 0.965662 16.3485 1.24354 17.0134C1.32468 17.2076 1.44846 17.3753 1.62308 17.4993C1.67968 17.5394 1.74318 17.5792 1.8094 17.5948C1.97905 17.6345 2.1519 17.6604 2.32363 17.6918L2.80996 17.6915C3.34776 17.6439 3.8373 17.461 4.27969 17.1579C4.9711 16.6842 5.43691 16.0491 5.63718 15.234C5.78277 14.6416 5.78871 14.0485 5.61714 13.4588C5.60071 13.4041 5.58177 13.3503 5.56037 13.2974C5.53953 13.2444 5.515 13.1928 5.48613 13.1267L6.58867 12.4974L6.60519 12.5114C6.58514 12.5765 6.56382 12.6414 6.5457 12.7072C6.4147 13.1821 6.32763 13.6654 6.3589 14.1583C6.39225 14.6836 6.53993 15.1753 6.84972 15.6141C7.10018 15.9691 7.69698 15.9823 7.96316 15.626C8.0576 15.4995 8.14916 15.3672 8.21795 15.226C8.39769 14.8576 8.56413 14.4826 8.73586 14.1101L8.76585 14.042C8.7535 14.2183 8.73907 14.3732 8.7325 14.5282C8.72223 14.7703 8.73651 15.011 8.81989 15.2413C8.89124 15.4384 9.01262 15.5856 9.23999 15.6116C9.39553 15.6292 9.51947 15.5586 9.6338 15.4689C9.81092 15.33 9.95772 15.1568 10.0653 14.9598C10.3701 14.4041 10.6831 13.8518 10.9594 13.2821C11.2583 12.6659 11.5196 12.0318 11.7972 11.4051L11.843 11.294C11.9086 11.5498 11.9543 11.8004 12.0385 12.0375C12.1363 12.3127 12.2574 12.5814 12.3892 12.8426C12.4516 12.966 12.4443 13.046 12.3579 13.1495C11.9962 13.5824 11.6407 14.0206 11.2849 14.4584C11.2062 14.555 11.1277 14.6533 11.0622 14.7589C11.0224 14.8255 10.9962 14.8993 10.9852 14.976C10.9742 15.0466 10.9911 15.1187 11.0324 15.1772C11.0738 15.2357 11.1363 15.276 11.207 15.2897C11.3495 15.3202 11.4957 15.3305 11.6412 15.3204C12.1378 15.2841 12.5887 15.1111 12.9873 14.8179C13.5037 14.4381 13.6695 13.9199 13.5445 13.3056C13.5106 13.139 13.4508 12.977 13.3926 12.8163C13.3665 12.7439 13.3647 12.6931 13.4124 12.6257C13.8252 12.0404 14.178 11.4195 14.5061 10.7842C14.5191 10.7592 14.5324 10.7342 14.5551 10.7075C14.6614 11.2566 14.8215 11.7859 15.1082 12.2661C14.9619 12.406 14.8171 12.5329 14.6861 12.6726C14.3977 12.9805 14.1475 13.3147 14.017 13.7224C13.9609 13.8981 13.9178 14.0767 13.9428 14.2643C13.9816 14.5558 14.2221 14.7452 14.5109 14.6788C15.1289 14.5368 15.6623 14.2478 16.0521 13.7357C16.3145 13.391 16.3383 13.0064 16.2285 12.6035C16.1984 12.494 16.1626 12.3863 16.1241 12.2607C16.2766 12.2137 16.4253 12.1574 16.579 12.1225C17.3774 11.9417 18.1671 11.9732 18.9364 12.2594C19.3856 12.4265 19.7484 12.7062 19.9636 13.1462C20.2264 13.684 20.0811 14.1943 19.5704 14.5343C19.5228 14.566 19.4683 14.591 19.4289 14.6306C19.4162 14.6451 19.4068 14.6621 19.4011 14.6805C19.3955 14.6988 19.3937 14.7182 19.396 14.7372C19.3993 14.7568 19.4515 14.7813 19.4814 14.781C19.6493 14.7797 19.7855 14.6923 19.9161 14.6026C20.2436 14.3777 20.4825 14.0751 20.534 13.6767L20.5441 13.6467L20.5317 13.3873C20.5267 13.3723 20.5354 13.3575 20.5343 13.3462C20.4647 12.766 20.1525 12.3161 19.6984 11.9633C19.1725 11.5551 18.5514 11.387 17.8947 11.3604C17.362 11.3376 16.83 11.4189 16.3289 11.5996C16.1851 11.6514 16.0425 11.7127 15.8979 11.7704C15.8785 11.7356 15.8576 11.7021 15.8405 11.6676C15.692 11.3658 15.5121 11.0774 15.4723 10.7314C15.4441 10.4856 15.4095 10.2402 15.4683 9.9971C15.5249 9.76328 15.5987 9.53343 15.6681 9.30279C15.7039 9.18405 15.6787 9.11752 15.5645 9.06404C15.5247 9.04434 15.4823 9.03051 15.4385 9.02297C15.1579 8.98254 14.8811 9.00562 14.6093 9.08409C14.5131 9.11195 14.4432 9.16543 14.4219 9.27112C14.4097 9.33176 14.3849 9.38986 14.3675 9.44971C14.2965 9.69849 14.2462 9.95205 14.1313 10.1891C13.8437 10.7836 13.5153 11.3556 13.1792 11.9236C13.1428 11.9848 13.1045 12.045 13.0586 12.1193C12.9406 11.8742 12.8147 11.6542 12.7766 11.3964C12.7334 11.1048 12.6995 10.8137 12.7726 10.5243C12.8269 10.3084 12.898 10.0966 12.9634 9.88361C12.9943 9.78238 12.9801 9.72921 12.8877 9.67589C12.841 9.64899 12.7883 9.62512 12.7357 9.61732C12.448 9.57381 12.154 9.59768 11.8772 9.68703C11.7901 9.71505 11.7444 9.77092 11.7178 9.86005C11.6396 10.123 11.5729 10.3923 11.463 10.6424C11.0182 11.6547 10.5606 12.6618 10.1035 13.6687C10.008 13.879 9.89629 14.0819 9.7887 14.2866C9.76144 14.3385 9.72167 14.3842 9.68768 14.4329C9.66042 14.4009 9.64984 14.3789 9.65 14.357C9.6508 14.2276 9.63524 14.0943 9.6601 13.9692C9.73642 13.5908 9.82078 13.2141 9.91312 12.8393C9.98849 12.5295 10.0762 12.2226 10.1597 11.915C10.1878 11.812 10.1883 11.7157 10.1137 11.6291C9.98849 11.4841 9.7268 11.4522 9.57159 11.564L9.50296 11.6025L9.51627 11.4927C9.54898 11.2573 9.55555 11.0226 9.49045 10.7907C9.40932 10.5017 9.20151 10.3353 8.89942 10.3446C8.75863 10.3489 8.61079 10.3727 8.48043 10.4237C7.93221 10.637 7.51066 11.0147 7.15181 11.4691C7.11854 11.5113 7.07731 11.5467 7.03042 11.5732C6.56654 11.8285 6.10122 12.0807 5.63606 12.3337L5.1183 12.6153C4.97944 12.4838 4.85325 12.3474 4.71006 12.2317C4.2728 11.8777 3.82848 11.5325 3.38817 11.1825C2.99789 10.8722 2.61979 10.5491 2.33053 10.1383C2.11534 9.83268 1.97664 9.49826 1.96333 9.12038C1.9465 8.63889 2.08407 8.19894 2.33101 7.78939C2.64689 7.2654 3.07774 6.84486 3.5514 6.46397C4.05248 6.06126 4.59445 5.71936 5.15614 5.40723C5.942 4.97062 6.7503 4.58415 7.61697 4.329C8.50561 4.06732 9.40723 3.91754 10.3372 4.02196C10.7028 4.06302 11.0578 4.14611 11.3838 4.32359C11.6335 4.45936 11.8382 4.63715 11.9335 4.91507C12.0274 5.18852 12.0246 5.46564 11.9595 5.7434C11.8272 6.30591 11.5169 6.76958 11.1265 7.1839C10.486 7.86309 9.70483 8.32548 8.82534 8.63093C8.31965 8.80679 7.79352 8.91819 7.25956 8.96248C6.82198 8.99893 6.39353 8.96041 5.9792 8.80936C5.70484 8.70924 5.46593 8.55612 5.27384 8.33392C5.23952 8.29412 5.19559 8.25099 5.13161 8.28823C5.06891 8.32484 5.05785 8.38405 5.07886 8.44406C5.11397 8.5437 5.14636 8.64748 5.20104 8.73662C5.33846 8.96026 5.53889 9.12245 5.75952 9.26157C6.18332 9.52914 6.65698 9.61907 7.14812 9.63992C7.89341 9.67191 8.62057 9.56145 9.33748 9.36296C10.361 9.07963 11.2509 8.5792 11.9646 7.78971C12.5588 7.13233 12.9833 6.39043 13.0742 5.49461C13.1186 5.05737 13.0713 4.62904 12.8651 4.23015C12.6414 3.798 12.2858 3.47663 11.8605 3.25523C11.2413 2.9329 10.5729 2.74524 9.88314 2.74524H9.19205C8.35665 2.74524 7.54898 2.98288 6.76393 3.26637C6.16969 3.48109 5.58699 3.73449 5.02129 4.01495C3.78935 4.62601 2.64208 5.36282 1.69973 6.37594C1.23023 6.88068 0.832735 7.43762 0.604082 8.09341C0.53507 8.2892 0.475619 8.48818 0.425937 8.68966L0.411987 8.97776ZM4.88981 14.4219C4.83641 15.1317 4.51235 15.7071 3.98273 16.1731C3.68481 16.4351 3.34311 16.6217 2.94513 16.6872C2.80082 16.711 2.65314 16.7167 2.51316 16.6573C2.31353 16.5726 2.26879 16.3968 2.26494 16.2094C2.25901 15.9108 2.36436 15.6408 2.50883 15.3839C2.6974 15.049 2.97383 14.7937 3.26903 14.5553C3.73403 14.1795 4.23848 13.8615 4.75512 13.5613L4.79408 13.5454C4.87393 13.8382 4.91193 14.1274 4.88981 14.4219ZM8.92379 11.3373C8.88611 11.564 8.83897 11.7908 8.77226 12.0105C8.54169 12.7708 8.24553 13.5076 7.92532 14.2346C7.86615 14.3691 7.78004 14.4918 7.70516 14.6193C7.69242 14.6389 7.67717 14.6568 7.65978 14.6724C7.5671 14.7633 7.47923 14.7586 7.43241 14.6397C7.37789 14.5015 7.34438 14.3536 7.31552 14.2073C7.29612 14.1091 7.30077 14.006 7.29468 13.9054C7.30093 13.1901 7.52076 12.54 7.89373 11.9349C8.0475 11.6853 8.2149 11.4475 8.47065 11.2896C8.55021 11.2405 8.63629 11.2026 8.7264 11.1772C8.8627 11.1392 8.9464 11.2017 8.92379 11.3373ZM11.676 14.8181L12.6651 13.6716C12.7063 14.0974 11.9773 14.9473 11.676 14.8181ZM14.8353 14.0466C14.7654 14.0864 14.6892 14.115 14.6175 14.1518C14.5519 14.1855 14.5303 14.1515 14.5284 14.0955C14.5274 14.0567 14.5324 14.018 14.5433 13.9807C14.6768 13.513 14.9227 13.1138 15.2884 12.7891L15.3141 12.7761C15.488 13.2592 15.287 13.7897 14.8353 14.0466Z" fill="#8257E6"/>
</g>
<defs>
<clipPath id="clip0">
<rect width="19.827" height="19.827" fill="white" transform="translate(0.717041)"/>
</clipPath>
</defs>
</svg>
