<svg width="21" height="21" viewBox="0 0 21 21" fill="none" xmlns="http://www.w3.org/2000/svg">
<g clip-path="url(#clip0_422_20)">
<path d="M14.0117 5.76465L13.9492 6.09048C13.8525 6.70798 13.8875 6.88465 14.1525 7.11381L14.4083 7.32548L14.1433 8.50715C13.985 9.21215 13.7908 9.80298 13.6675 9.99715C13.5617 10.1646 13.4383 10.4113 13.4117 10.5438C13.3675 10.7021 13.2175 10.8613 12.9883 11.0021C12.7858 11.1171 12.3883 11.4255 12.1067 11.673C11.8817 11.8755 11.7267 11.9996 11.6425 12.053L11.3675 12.2705C11.2792 12.4121 11.2292 12.5263 11.21 12.613C11.1908 12.7021 11.2017 12.7613 11.23 12.8046C11.2575 12.8463 11.305 12.8755 11.37 12.8938C11.4469 12.9118 11.5261 12.9183 11.605 12.913C11.7834 12.9008 11.96 12.8695 12.1317 12.8196C12.19 12.8038 12.2358 12.7888 12.2758 12.7755C12.3375 12.6996 12.48 12.5563 12.7325 12.3071C13.4025 11.6463 13.6583 11.2846 13.3942 11.3821C13.2967 11.4171 13.3408 11.3288 13.5083 11.1521C13.8617 10.808 14.0642 10.288 14.4875 8.65715C14.8225 7.36965 14.8225 7.35132 15.0692 7.35132C15.185 7.35132 15.5125 7.37131 15.5125 7.37131V5.76465H14.7608H14.0117ZM17.2108 8.40215C17.1575 8.40215 17.0692 8.48215 17.0167 8.57048C16.92 8.72881 17.0342 8.82548 18.4892 9.73381C19.3533 10.2813 20.05 10.748 20.0325 10.7838C20.015 10.8096 19.3092 11.2688 18.4633 11.798C16.9283 12.7496 16.92 12.7588 17.0608 12.953C17.2375 13.1821 17.0608 13.2613 19.0533 12.018L20.5 11.0921V10.3955L18.8858 9.39882C18.0133 8.85215 17.255 8.41132 17.2108 8.40215ZM3.80667 8.49965C3.7625 8.49965 3.00417 8.94965 2.13167 9.48715L0.5 10.4838V11.1805L2.1225 12.1946C3.0225 12.7496 3.78083 13.2088 3.81583 13.2088C3.85083 13.2088 3.92167 13.1288 3.9925 13.0321C4.09833 12.8646 4.00917 12.7938 2.51917 11.8505C1.1 10.9596 0.95 10.8363 1.09167 10.7396C1.18 10.678 1.85 10.263 2.57333 9.81382C4.2225 8.79965 4.13417 8.86965 4.00167 8.65798C3.94917 8.57048 3.86 8.49131 3.8075 8.49965H3.80667ZM11.0433 8.51882C10.8 8.51715 10.2767 8.88798 8.71 10.1671C8.6425 10.328 8.63667 10.4388 8.6675 10.5105C8.6875 10.5596 8.72417 10.5938 8.775 10.6188C8.825 10.6438 8.89 10.6588 8.96167 10.6646C9.10417 10.6771 9.2725 10.6546 9.40833 10.628L9.5 10.6071C9.53138 10.5651 9.57258 10.5313 9.62 10.5088C9.71667 10.4555 10.1225 10.0855 10.5283 9.68881C11.2425 8.96548 11.41 8.63881 11.1192 8.53298C11.0953 8.52349 11.0698 8.51868 11.0442 8.51882H11.0433ZM12.8733 9.02132C12.6592 9.02715 12.2733 9.27548 11.6125 9.80298C11.2808 10.0721 11.0708 10.2171 10.9583 10.2471L10.5217 10.5921C10.3575 10.8921 10.3333 11.078 10.3767 11.1805C10.3875 11.2058 10.4033 11.2287 10.423 11.2478C10.4427 11.267 10.4661 11.2821 10.4917 11.2921C10.5553 11.3173 10.6232 11.33 10.6917 11.3296C10.8552 11.3279 11.0178 11.3041 11.175 11.2588C11.2569 11.2368 11.3378 11.2113 11.4175 11.1821L11.4417 11.1721L11.4858 11.1488C11.5692 11.0413 11.7608 10.8388 12.0008 10.6055C12.7592 9.87382 13.1467 9.35382 13.0675 9.15965C13.0317 9.06548 12.97 9.01798 12.8733 9.02132V9.02132ZM10.8533 9.92131C10.7917 9.92798 10.6533 10.0346 10.4042 10.253C10.0442 10.5713 9.65167 10.7546 9.51583 10.673C9.48427 10.6801 9.4526 10.6868 9.42083 10.693C9.2825 10.7205 9.11 10.743 8.95583 10.7305C8.88319 10.7261 8.812 10.7083 8.74583 10.678C8.68343 10.6494 8.63362 10.5991 8.60583 10.5363C8.575 10.4613 8.575 10.368 8.61 10.2488L8.06833 10.6938L6.8425 11.708V13.3521L10.8592 10.188C10.8584 10.1533 10.8629 10.1188 10.8725 10.0855C10.9033 9.97381 10.9017 9.91715 10.8533 9.92215V9.92131ZM12.5817 10.4538C12.5208 10.4538 12.4192 10.5396 12.2567 10.7121C12.0358 10.948 11.6883 11.1763 11.5042 11.223L11.4758 11.238C11.4456 11.2505 11.415 11.2621 11.3842 11.273C11.3342 11.2896 11.2692 11.3096 11.1942 11.3296C11.0442 11.3705 10.8575 11.408 10.6908 11.4038C10.6123 11.4037 10.5344 11.3884 10.4617 11.3588C10.3931 11.3305 10.3381 11.2768 10.3083 11.2088C10.26 11.093 10.2792 10.9305 10.385 10.6996L6.84167 13.4905V14.4946H8.39833L11.7 11.9013C11.7858 11.8063 11.915 11.6763 12.0892 11.5138C12.5558 11.0813 12.6617 10.9321 12.6617 10.7113C12.6617 10.5396 12.6425 10.453 12.5817 10.453V10.4538ZM13.3675 12.0788L13.085 12.3605C12.9267 12.5105 12.6442 12.6955 12.4508 12.7746L12.4125 12.7913L12.41 12.7955L12.4017 12.8038C12.3942 12.8096 12.3908 12.8105 12.385 12.813C12.3078 12.8422 12.2294 12.8681 12.15 12.8905C11.9734 12.9419 11.7918 12.974 11.6083 12.9863C11.5216 12.9919 11.4345 12.9843 11.35 12.9638C11.2767 12.9477 11.212 12.9049 11.1683 12.8438C11.1283 12.7821 11.1167 12.6996 11.1392 12.598C11.1571 12.5256 11.1836 12.4556 11.2183 12.3896L8.55417 14.4946H12.0975L12.5208 14.0096C13.1025 13.3313 13.3675 12.8463 13.3675 12.4313V12.0788Z" fill="#8257E6"/>
</g>
<defs>
<clipPath id="clip0_422_20">
<rect width="20" height="20" fill="white" transform="translate(0.5 0.129639)"/>
</clipPath>
</defs>
</svg>
