<svg width="21" height="21" viewBox="0 0 21 21" fill="none" xmlns="http://www.w3.org/2000/svg">
<g clip-path="url(#clip0_422_14)">
<path d="M4.26094 8.25159H19.8344V19.7625H4.26094V8.25159Z" fill="#212121"/>
<path d="M0.953125 10.8938V20.6594H20.4844V1.12817H0.953125V10.8938ZM16.6922 10.1125C17.16 10.2211 17.5852 10.4658 17.9141 10.8157C18.0951 11.0042 18.2525 11.2141 18.3828 11.4407C18.3828 11.4657 17.5391 12.036 17.025 12.3547C17.0063 12.3672 16.9313 12.286 16.8484 12.1625C16.7546 12.0006 16.6213 11.8651 16.4609 11.7687C16.3005 11.6722 16.1183 11.618 15.9313 11.611C15.3391 11.5704 14.9578 11.8813 14.9609 12.3922C14.956 12.5194 14.9852 12.6457 15.0453 12.7579C15.175 13.0282 15.4172 13.1891 16.1766 13.5172C17.575 14.1188 18.1734 14.5157 18.5453 15.0797C18.9609 15.7047 19.0531 16.7141 18.7719 17.461C18.4594 18.2735 17.6937 18.825 16.6109 19.0079C16.1164 19.0645 15.6167 19.0593 15.1234 18.9922C14.3674 18.8676 13.6711 18.5047 13.1359 17.9563C12.9563 17.7579 12.6063 17.2407 12.6281 17.2032C12.6852 17.1608 12.7452 17.1227 12.8078 17.0891L13.5312 16.6891L14.0922 16.3641L14.2094 16.5375C14.4071 16.8205 14.6588 17.0615 14.95 17.2469C15.575 17.575 16.4281 17.5297 16.85 17.15C16.9916 17.0109 17.08 16.8265 17.0997 16.6289C17.1194 16.4314 17.0692 16.2332 16.9578 16.0688C16.8016 15.8516 16.4891 15.6688 15.6156 15.2875C14.6078 14.8532 14.1734 14.5844 13.7766 14.1563C13.5288 13.8738 13.3459 13.5405 13.2406 13.1797C13.1621 12.7676 13.1505 12.3455 13.2062 11.9297C13.4141 10.9563 14.1437 10.2766 15.2094 10.075C15.7029 10.014 16.2028 10.0277 16.6922 10.1157V10.1125ZM12.1078 10.9313V11.7313H9.57187V18.9547H7.77344V11.7297H5.23125V10.9485C5.22333 10.6791 5.22959 10.4094 5.25 10.1407C5.2625 10.1266 6.8125 10.1266 8.6875 10.1266H12.0984L12.1078 10.9313Z" fill="#8257E6"/>
</g>
<defs>
<clipPath id="clip0_422_14">
<rect width="20" height="20" fill="white" transform="translate(0.71875 0.907837)"/>
</clipPath>
</defs>
</svg>
